<svg width="69" height="24" viewBox="0 0 69 24" fill="none" xmlns="http://www.w3.org/2000/svg">
<path d="M2 20V12.12H0.08V9.86H2.86L2 10.64V9.18C2 7.86 2.34 6.86667 3.02 6.2C3.71333 5.53333 4.74667 5.2 6.12 5.2C6.42667 5.2 6.75333 5.22 7.1 5.26C7.46 5.3 7.77333 5.38 8.04 5.5V7.82C7.85333 7.75333 7.64 7.70667 7.4 7.68C7.16 7.64 6.92667 7.62 6.7 7.62C6.39333 7.62 6.10667 7.67333 5.84 7.78C5.58667 7.88667 5.38 8.06667 5.22 8.32C5.07333 8.56 5 8.88667 5 9.3V10.36L4.58 9.86H7.56V12.12H5.02V20H2ZM13.1205 20.22C12.0405 20.22 11.1005 20.0067 10.3005 19.58C9.5138 19.14 8.90047 18.5267 8.46047 17.74C8.0338 16.9533 7.82047 16.0133 7.82047 14.92C7.82047 13.84 8.0338 12.9067 8.46047 12.12C8.90047 11.3333 9.5138 10.7267 10.3005 10.3C11.1005 9.87333 12.0405 9.66 13.1205 9.66C14.2005 9.66 15.1405 9.87333 15.9405 10.3C16.7405 10.7267 17.3538 11.3333 17.7805 12.12C18.2205 12.9067 18.4405 13.84 18.4405 14.92C18.4405 16.0133 18.2205 16.9533 17.7805 17.74C17.3538 18.5267 16.7405 19.14 15.9405 19.58C15.1405 20.0067 14.2005 20.22 13.1205 20.22ZM13.1205 17.94C13.8138 17.94 14.3605 17.6933 14.7605 17.2C15.1738 16.7067 15.3805 15.9467 15.3805 14.92C15.3805 13.8933 15.1738 13.14 14.7605 12.66C14.3605 12.18 13.8138 11.94 13.1205 11.94C12.4271 11.94 11.8738 12.18 11.4605 12.66C11.0605 13.14 10.8605 13.8933 10.8605 14.92C10.8605 15.9467 11.0605 16.7067 11.4605 17.2C11.8738 17.6933 12.4271 17.94 13.1205 17.94ZM24.7908 20.22C23.7108 20.22 22.7708 20.0067 21.9708 19.58C21.1841 19.14 20.5708 18.5267 20.1308 17.74C19.7041 16.9533 19.4908 16.0133 19.4908 14.92C19.4908 13.84 19.7041 12.9067 20.1308 12.12C20.5708 11.3333 21.1841 10.7267 21.9708 10.3C22.7708 9.87333 23.7108 9.66 24.7908 9.66C25.8708 9.66 26.8108 9.87333 27.6108 10.3C28.4108 10.7267 29.0241 11.3333 29.4508 12.12C29.8908 12.9067 30.1108 13.84 30.1108 14.92C30.1108 16.0133 29.8908 16.9533 29.4508 17.74C29.0241 18.5267 28.4108 19.14 27.6108 19.58C26.8108 20.0067 25.8708 20.22 24.7908 20.22ZM24.7908 17.94C25.4841 17.94 26.0308 17.6933 26.4308 17.2C26.8441 16.7067 27.0508 15.9467 27.0508 14.92C27.0508 13.8933 26.8441 13.14 26.4308 12.66C26.0308 12.18 25.4841 11.94 24.7908 11.94C24.0974 11.94 23.5441 12.18 23.1308 12.66C22.7308 13.14 22.5308 13.8933 22.5308 14.92C22.5308 15.9467 22.7308 16.7067 23.1308 17.2C23.5441 17.6933 24.0974 17.94 24.7908 17.94ZM35.6411 20.22C34.7611 20.22 33.9811 20.0067 33.3011 19.58C32.6344 19.1533 32.1078 18.5467 31.7211 17.76C31.3478 16.9733 31.1611 16.0267 31.1611 14.92C31.1611 13.8267 31.3478 12.8867 31.7211 12.1C32.0944 11.3133 32.6211 10.7133 33.3011 10.3C33.9811 9.87333 34.7611 9.66 35.6411 9.66C36.4411 9.66 37.1544 9.85333 37.7811 10.24C38.4211 10.6133 38.8478 11.12 39.0611 11.76H38.8011V5.28H41.8211V20H38.8411V18.02H39.1011C38.8878 18.6867 38.4611 19.22 37.8211 19.62C37.1811 20.02 36.4544 20.22 35.6411 20.22ZM36.5411 17.94C37.2344 17.94 37.7944 17.6933 38.2211 17.2C38.6478 16.7067 38.8611 15.9467 38.8611 14.92C38.8611 13.8933 38.6478 13.14 38.2211 12.66C37.7944 12.18 37.2344 11.94 36.5411 11.94C35.8478 11.94 35.2811 12.18 34.8411 12.66C34.4144 13.14 34.2011 13.8933 34.2011 14.92C34.2011 15.9467 34.4144 16.7067 34.8411 17.2C35.2811 17.6933 35.8478 17.94 36.5411 17.94ZM43.8978 20V9.86H46.9178V20H43.8978ZM43.7778 8.2V5.38H47.0178V8.2H43.7778ZM54.0861 20.22C52.3261 20.22 50.9528 19.7467 49.9661 18.8C48.9794 17.8533 48.4861 16.5667 48.4861 14.94C48.4861 13.8867 48.6928 12.9667 49.1061 12.18C49.5328 11.3933 50.1194 10.78 50.8661 10.34C51.6261 9.88667 52.5128 9.66 53.5261 9.66C54.5261 9.66 55.3594 9.87333 56.0261 10.3C56.7061 10.7267 57.2128 11.3267 57.5461 12.1C57.8928 12.86 58.0661 13.7467 58.0661 14.76V15.46H50.9661V13.96H55.8661L55.5261 14.24C55.5261 13.4 55.3528 12.7667 55.0061 12.34C54.6728 11.9 54.1861 11.68 53.5461 11.68C52.8394 11.68 52.2928 11.94 51.9061 12.46C51.5328 12.98 51.3461 13.7267 51.3461 14.7V15.02C51.3461 16.0067 51.5861 16.74 52.0661 17.22C52.5594 17.7 53.2661 17.94 54.1861 17.94C54.7328 17.94 55.2461 17.8733 55.7261 17.74C56.2194 17.5933 56.6861 17.3667 57.1261 17.06L57.9661 19.06C57.4594 19.4333 56.8728 19.72 56.2061 19.92C55.5528 20.12 54.8461 20.22 54.0861 20.22ZM63.3222 20.22C62.4155 20.22 61.5889 20.12 60.8422 19.92C60.0955 19.72 59.4622 19.44 58.9422 19.08L59.7222 17.08C60.2422 17.4 60.8155 17.6533 61.4422 17.84C62.0822 18.0267 62.7155 18.12 63.3422 18.12C63.9289 18.12 64.3622 18.0267 64.6422 17.84C64.9222 17.6533 65.0622 17.4 65.0622 17.08C65.0622 16.8133 64.9689 16.6067 64.7822 16.46C64.6089 16.3133 64.3355 16.2067 63.9622 16.14L61.9022 15.76C61.0355 15.5867 60.3755 15.2667 59.9222 14.8C59.4689 14.3333 59.2422 13.7267 59.2422 12.98C59.2422 12.3267 59.4155 11.7533 59.7622 11.26C60.1222 10.7533 60.6355 10.36 61.3022 10.08C61.9689 9.8 62.7489 9.66 63.6422 9.66C64.4022 9.66 65.1222 9.75333 65.8022 9.94C66.4822 10.1267 67.0622 10.4133 67.5422 10.8L66.7222 12.74C66.3089 12.4333 65.8289 12.1867 65.2822 12C64.7489 11.8133 64.2355 11.72 63.7422 11.72C63.1022 11.72 62.6422 11.8267 62.3622 12.04C62.0822 12.24 61.9422 12.5 61.9422 12.82C61.9422 13.06 62.0222 13.26 62.1822 13.42C62.3555 13.58 62.6155 13.7 62.9622 13.78L65.0422 14.16C65.9355 14.32 66.6155 14.62 67.0822 15.06C67.5489 15.5 67.7822 16.1067 67.7822 16.88C67.7822 17.5867 67.5955 18.1867 67.2222 18.68C66.8489 19.1733 66.3222 19.5533 65.6422 19.82C64.9755 20.0867 64.2022 20.22 63.3222 20.22Z" fill="currentColor"/>
</svg>
